# xmcd CD database file
#
# Track frame offsets:
#	150
#	22807
#	50115
#	75552
#	99715
#	117017
#	142465
#	164535
#	189435
#	210412
#
# Disc length: 3029 seconds
#
# Revision: 0
# Processed by: cddbd v1.5.2PL0 Copyright (c) Steve Scherf et al.
# Submitted via: CDex 1.70beta2
#
DISCID=870bd30a
DTITLE=french jazz trio - autumn leave
DYEAR=2004
DGENRE=Jazz
TTITLE0=autumn leaves
TTITLE1=la mer
TTITLE2=la javanaise
TTITLE3=no problem
TTITLE4=la bohême
TTITLE5=la vie en rose
TTITLE6=un homme et une femme
TTITLE7=what are you doing the rest of your life
TTITLE8=que rest t-il de nos amours
TTITLE9=dors adèle
EXTD=YEAR: 2004
EXTT0=
EXTT1=
EXTT2=
EXTT3=
EXTT4=
EXTT5=
EXTT6=
EXTT7=
EXTT8=
EXTT9=
PLAYORDER=
